<svg width="24" height="24" viewBox="0 0 24 24" fill="none" xmlns="http://www.w3.org/2000/svg">
<path d="M23 12C23 18.0751 18.0751 23 12 23C5.92487 23 1 18.0751 1 12C1 5.92487 5.92487 1 12 1C18.0751 1 23 5.92487 23 12ZM2.1 12C2.1 17.4676 6.53238 21.9 12 21.9C17.4676 21.9 21.9 17.4676 21.9 12C21.9 6.53238 17.4676 2.1 12 2.1C6.53238 2.1 2.1 6.53238 2.1 12Z" fill="#FF9900"/>
<rect x="11.2754" y="4.66666" width="0.916667" height="9.16667" rx="0.458333" fill="#FF9900"/>
<rect x="15.6206" y="9.05798" width="0.916667" height="6.41667" rx="0.458333" transform="rotate(45 15.6206 9.05798)" fill="#FF9900"/>
</svg>
