<svg width="10" height="10" viewBox="0 0 10 10" fill="none" xmlns="http://www.w3.org/2000/svg">
<g clip-path="url(#clip0_9_195)">
<path d="M9.78571 9.78572C9.64286 9.92857 9.5 10 9.28571 10C9.07143 10 8.92857 9.92857 8.78571 9.78572L5 6L1.21428 9.78572C1.07143 9.92857 0.857141 10 0.714285 10C0.571427 10 0.357141 9.92857 0.214284 9.78572C-0.0714302 9.5 -0.0714302 9.07143 0.214284 8.78571L4 5L0.214284 1.21429C-0.0714302 0.928571 -0.0714302 0.5 0.214284 0.214286C0.499998 -0.0714286 0.928571 -0.0714286 1.21428 0.214286L5 4L8.78571 0.214286C9.07143 -0.0714286 9.5 -0.0714286 9.78571 0.214286C10.0714 0.5 10.0714 0.928571 9.78571 1.21429L6 5L9.78571 8.78571C10.0714 9.07143 10.0714 9.5 9.78571 9.78572Z" fill="#FF0000"/>
</g>
<defs>
<clipPath id="clip0_9_195">
<rect width="10" height="10" fill="white" transform="matrix(-1 0 0 1 10 0)"/>
</clipPath>
</defs>
</svg>
