<svg width="24" height="24" viewBox="0 0 24 24" fill="none" xmlns="http://www.w3.org/2000/svg">
<path d="M2.50002 12H5.88198C6.56718 12 7.19358 12.3871 7.50001 13C7.80644 13.6129 8.43284 14 9.11804 14H14.882C15.5672 14 16.1936 13.6129 16.5 13C16.8064 12.3871 17.4328 12 18.118 12H21.5M8.96657 4H15.0334C16.1103 4 16.6487 4 17.1241 4.16396C17.5445 4.30896 17.9274 4.5456 18.2451 4.85675C18.6043 5.2086 18.8451 5.6902 19.3267 6.65337L21.4932 10.9865C21.6822 11.3645 21.7767 11.5535 21.8434 11.7515C21.9026 11.9275 21.9453 12.1085 21.971 12.2923C22 12.4992 22 12.7105 22 13.1331V15.2C22 16.8802 22 17.7202 21.673 18.362C21.3854 18.9265 20.9265 19.3854 20.362 19.673C19.7202 20 18.8802 20 17.2 20H6.80001C5.11986 20 4.27978 20 3.63805 19.673C3.07356 19.3854 2.61462 18.9265 2.327 18.362C2.00002 17.7202 2.00002 16.8802 2.00002 15.2V13.1331C2.00002 12.7105 2.00002 12.4992 2.02899 12.2923C2.05473 12.1085 2.09746 11.9275 2.15664 11.7515C2.22328 11.5535 2.31778 11.3645 2.50677 10.9865L4.67332 6.65337C5.15491 5.69019 5.39571 5.2086 5.75496 4.85675C6.07264 4.5456 6.45552 4.30896 6.8759 4.16396C7.35126 4 7.8897 4 8.96657 4Z" stroke="#0095FF" stroke-linecap="round" stroke-linejoin="round"/>
</svg>
