<svg width="12" height="12" viewBox="0 0 12 12" fill="none" xmlns="http://www.w3.org/2000/svg">
<g clip-path="url(#clip0_9_267)">
<path d="M11.25 5.71875H6.28125V0.75C6.28125 0.59475 6.15525 0.46875 6 0.46875C5.84475 0.46875 5.71875 0.59475 5.71875 0.75V5.71875H0.75C0.59475 5.71875 0.46875 5.84475 0.46875 6C0.46875 6.15525 0.59475 6.28125 0.75 6.28125H5.71875V11.25C5.71875 11.4052 5.84475 11.5312 6 11.5312C6.15525 11.5312 6.28125 11.4052 6.28125 11.25V6.28125H11.25C11.4052 6.28125 11.5312 6.15525 11.5312 6C11.5312 5.84475 11.4052 5.71875 11.25 5.71875Z" fill="black" fill-opacity="0.5"/>
<path d="M11.25 5.51875H6.48125V0.75C6.48125 0.484293 6.26571 0.26875 6 0.26875C5.73429 0.26875 5.51875 0.484293 5.51875 0.75V5.51875H0.75C0.484293 5.51875 0.26875 5.73429 0.26875 6C0.26875 6.26571 0.484293 6.48125 0.75 6.48125H5.51875V11.25C5.51875 11.5157 5.73429 11.7312 6 11.7312C6.26571 11.7312 6.48125 11.5157 6.48125 11.25V6.48125H11.25C11.5157 6.48125 11.7312 6.26571 11.7312 6C11.7312 5.73429 11.5157 5.51875 11.25 5.51875Z" stroke="black" stroke-opacity="0.5" stroke-width="0.4"/>
</g>
<defs>
<clipPath id="clip0_9_267">
<rect width="12" height="12" fill="white"/>
</clipPath>
</defs>
</svg>
