<svg width="12" height="12" viewBox="0 0 12 12" fill="none" xmlns="http://www.w3.org/2000/svg">
<g clip-path="url(#clip0_6_89)">
<path d="M11.25 5.51875H6.48125V0.75C6.48125 0.484293 6.26571 0.26875 6 0.26875C5.73429 0.26875 5.51875 0.484293 5.51875 0.75V5.51875H0.75C0.484293 5.51875 0.26875 5.73429 0.26875 6C0.26875 6.26571 0.484293 6.48125 0.75 6.48125H5.51875V11.25C5.51875 11.5157 5.73429 11.7312 6 11.7312C6.26571 11.7312 6.48125 11.5157 6.48125 11.25V6.48125H11.25C11.5157 6.48125 11.7312 6.26571 11.7312 6C11.7312 5.73429 11.5157 5.51875 11.25 5.51875Z" fill="black" stroke="black" stroke-width="0.4"/>
</g>
<defs>
<clipPath id="clip0_6_89">
<rect width="12" height="12" fill="white"/>
</clipPath>
</defs>
</svg>
