<svg width="52" height="52" viewBox="0 0 52 52" fill="none" xmlns="http://www.w3.org/2000/svg">
<g clip-path="url(#clip0_4_10)">
<circle cx="26" cy="26" r="26" fill="white"/>
<g clip-path="url(#clip1_4_10)">
<path fill-rule="evenodd" clip-rule="evenodd" d="M19.1926 10C19.8976 10 20.469 10.5538 20.469 11.237V11.6386C20.5522 11.618 20.6357 11.5982 20.7195 11.5792C24.1928 10.7896 27.8072 10.7896 31.2804 11.5792C31.3643 11.5982 31.4477 11.618 31.5309 11.6386V11.237C31.5309 10.5538 32.1024 10 32.8073 10C33.5123 10 34.0838 10.5538 34.0838 11.237V12.5405C37.7227 14.2441 40.4425 17.4652 41.389 21.3759C42.2037 24.7421 42.2037 28.245 41.389 31.6111C40.2125 36.472 36.2961 40.2676 31.2804 41.4079C27.8072 42.1974 24.1928 42.1974 20.7195 41.4079C15.7038 40.2676 11.7875 36.4722 10.611 31.6111C9.79632 28.245 9.79632 24.7421 10.611 21.3759C11.5575 17.4652 14.2773 14.2441 17.9163 12.5405V11.237C17.9163 10.5538 18.4877 10 19.1926 10ZM24.1692 22.2452C24.5681 21.8588 24.5681 21.2322 24.1692 20.8457C23.7705 20.4592 23.124 20.4592 22.7253 20.8457L20.0436 23.4446L19.0638 22.4951C18.665 22.1086 18.0184 22.1086 17.6197 22.4951C17.2209 22.8814 17.2209 23.5081 17.6197 23.8946L19.3215 25.544C19.7203 25.9303 20.3668 25.9303 20.7656 25.544L24.1692 22.2452ZM27.7018 23.0299C27.1379 23.0299 26.6807 23.4729 26.6807 24.0196C26.6807 24.5661 27.1379 25.0091 27.7018 25.0091H33.6584C34.2223 25.0091 34.6793 24.5661 34.6793 24.0196C34.6793 23.4729 34.2223 23.0299 33.6584 23.0299H27.7018ZM24.1692 30.4919C24.5681 30.1054 24.5681 29.479 24.1692 29.0925C23.7705 28.706 23.124 28.706 22.7253 29.0925L20.0436 31.6914L19.0638 30.7419C18.665 30.3554 18.0184 30.3554 17.6197 30.7419C17.2209 31.1282 17.2209 31.7549 17.6197 32.1414L19.3215 33.7906C19.7203 34.1771 20.3668 34.1771 20.7656 33.7906L24.1692 30.4919ZM27.7018 31.2766C27.1379 31.2766 26.6807 31.7197 26.6807 32.2663C26.6807 32.8128 27.1379 33.2559 27.7018 33.2559H33.6584C34.2223 33.2559 34.6793 32.8128 34.6793 32.2663C34.6793 31.7197 34.2223 31.2766 33.6584 31.2766H27.7018Z" fill="#245171"/>
</g>
</g>
<defs>
<clipPath id="clip0_4_10">
<rect width="52" height="52" fill="white"/>
</clipPath>
<clipPath id="clip1_4_10">
<rect width="32" height="32" fill="white" transform="translate(10 10)"/>
</clipPath>
</defs>
</svg>
