<svg width="24" height="24" viewBox="0 0 24 24" fill="none" xmlns="http://www.w3.org/2000/svg">
<path d="M20.0622 3.06465V2.2925C20.0622 1.57964 19.4823 1 18.7697 1C18.0571 1 17.4772 1.57964 17.4772 2.2925V3.06465H6.52297V2.2925C6.52297 1.57964 5.9431 1 5.23047 1C4.51784 1 3.93798 1.57964 3.93798 2.2925V3.06465H1V23H23V3.06465H20.0622ZM18.3572 2.2925C18.3572 2.06517 18.5422 1.87999 18.7697 1.87999C18.9972 1.87999 19.1822 2.06517 19.1822 2.2925V4.24069H18.3572V2.2925ZM4.81796 2.2925C4.81796 2.06517 5.00292 1.87999 5.23047 1.87999C5.45798 1.87999 5.64298 2.06517 5.64298 2.2925V4.24069H4.81796V2.2925ZM22.12 22.12H1.87999V15.8844H11.6992L8.35578 19.2622L8.98096 19.8809L13.373 15.4444L8.98096 11.0078L8.35578 11.6266L11.6992 15.0044H1.87999V8.74858H22.12V22.12ZM22.12 7.86855H1.87999V3.94464H3.93798V5.12068H6.52297V3.94464H17.4772V5.12068H20.0622V3.94464H22.12V7.86855Z" fill="#B479FF"/>
</svg>
